<svg style="width: 100px; height: auto;" viewBox="0 0 398 107" version="1.1" xmlns="http://www.w3.org/2000/svg" xmlns:xlink="http://www.w3.org/1999/xlink">
    <desc></desc>
    <defs></defs>
    <g id="Page-1" stroke="none" stroke-width="1" fill="none" fill-rule="evenodd">
        <g id="Group">
            <path d="M138.32,41.44 C138.32,42.8533404 138.153335,44.2333266 137.82,45.58 C137.486665,46.9266734 136.98667,48.199994 136.32,49.4 C135.65333,50.600006 134.820005,51.7133282 133.82,52.74 C132.819995,53.7666718 131.666673,54.6399964 130.36,55.36 C131.826674,55.7333352 133.026662,56.2999962 133.96,57.06 C134.893338,57.8200038 135.626664,58.7066616 136.16,59.72 C136.693336,60.7333384 137.059999,61.839994 137.26,63.04 C137.460001,64.240006 137.56,65.4533272 137.56,66.68 L137.56,75.28 C137.56,76.5333396 137.726665,77.7333276 138.06,78.88 C138.393335,80.0266724 138.826664,81.066662 139.36,82 L132.8,82 C132.533332,81.5733312 132.320001,81.0800028 132.16,80.52 C131.999999,79.9599972 131.88,79.3866696 131.8,78.8 C131.72,78.2133304 131.666667,77.6400028 131.64,77.08 C131.613333,76.5199972 131.6,76.0266688 131.6,75.6 L131.6,66.6 C131.6,65.5066612 131.413335,64.426672 131.04,63.36 C130.666665,62.293328 130.066671,61.3400042 129.24,60.5 C128.413329,59.6599958 127.340007,58.9800026 126.02,58.46 C124.699993,57.9399974 123.093343,57.68 121.2,57.68 L104.04,57.68 L104.04,82 L98,82 L98,25.32 L121.2,25.32 C123.94668,25.32 126.386656,25.7999952 128.52,26.76 C130.653344,27.7200048 132.446659,28.966659 133.9,30.5 C135.353341,32.033341 136.45333,33.7599904 137.2,35.68 C137.94667,37.6000096 138.32,39.5199904 138.32,41.44 Z M104.04,52.36 L121.2,52.36 C122.693341,52.36 124.10666,52.0733362 125.44,51.5 C126.77334,50.9266638 127.946662,50.1466716 128.96,49.16 C129.973338,48.1733284 130.77333,47.01334 131.36,45.68 C131.94667,44.34666 132.24,42.9066744 132.24,41.36 C132.24,39.8399924 131.960003,38.4400064 131.4,37.16 C130.839997,35.8799936 130.073338,34.7666714 129.1,33.82 C128.126662,32.8733286 126.966673,32.133336 125.62,31.6 C124.273327,31.066664 122.800008,30.8 121.2,30.8 L104.04,30.8 L104.04,52.36 Z M154.04,62.76 C154.066667,64.6533428 154.399997,66.4933244 155.04,68.28 C155.680003,70.0666756 156.553328,71.6466598 157.66,73.02 C158.766672,74.3933402 160.066659,75.4933292 161.56,76.32 C163.053341,77.1466708 164.666658,77.56 166.4,77.56 C172.266696,77.56 176.146657,74.8400272 178.04,69.4 L183.52,69.4 C183.066664,71.533344 182.293339,73.433325 181.2,75.1 C180.106661,76.766675 178.793341,78.166661 177.26,79.3 C175.726659,80.433339 174.033343,81.299997 172.18,81.9 C170.326657,82.500003 168.40001,82.8 166.4,82.8 C163.546652,82.8 160.966678,82.2133392 158.66,81.04 C156.353322,79.8666608 154.393341,78.2866766 152.78,76.3 C151.166659,74.3133234 149.920004,72.0066798 149.04,69.38 C148.159996,66.7533202 147.72,63.973348 147.72,61.04 C147.72,58.3199864 148.153329,55.7200124 149.02,53.24 C149.886671,50.7599876 151.126659,48.5800094 152.74,46.7 C154.353341,44.8199906 156.306655,43.3266722 158.6,42.22 C160.893345,41.1133278 163.466652,40.56 166.32,40.56 C169.06668,40.56 171.553322,41.059995 173.78,42.06 C176.006678,43.060005 177.899992,44.4399912 179.46,46.2 C181.020008,47.9600088 182.219996,50.0533212 183.06,52.48 C183.900004,54.9066788 184.32,57.5333192 184.32,60.36 L184.32,62.76 L154.04,62.76 Z M178.12,58.08 C178.066666,56.3733248 177.753336,54.7733408 177.18,53.28 C176.606664,51.7866592 175.793339,50.4933388 174.74,49.4 C173.686661,48.3066612 172.420007,47.4466698 170.94,46.82 C169.459993,46.1933302 167.786676,45.88 165.92,45.88 C164.239992,45.88 162.686674,46.21333 161.26,46.88 C159.833326,47.54667 158.586672,48.446661 157.52,49.58 C156.453328,50.713339 155.613336,52.013326 155,53.48 C154.386664,54.946674 154.066667,56.479992 154.04,58.08 L178.12,58.08 Z M193.04,41.28 L199,41.28 L199,47.44 C199.693337,46.3199944 200.519995,45.3200044 201.48,44.44 C202.440005,43.5599956 203.459995,42.820003 204.54,42.22 C205.620005,41.619997 206.726661,41.1666682 207.86,40.86 C208.993339,40.5533318 210.093328,40.4 211.16,40.4 C213.90668,40.4 216.366656,40.9533278 218.54,42.06 C220.713344,43.1666722 222.539993,44.6733238 224.02,46.58 C225.500007,48.4866762 226.633329,50.7199872 227.42,53.28 C228.206671,55.8400128 228.6,58.586652 228.6,61.52 C228.6,64.453348 228.220004,67.2066538 227.46,69.78 C226.699996,72.3533462 225.580007,74.5999904 224.1,76.52 C222.619993,78.4400096 220.806677,79.9533278 218.66,81.06 C216.513323,82.1666722 214.06668,82.72 211.32,82.72 C210.279995,82.72 209.186672,82.5733348 208.04,82.28 C206.893328,81.9866652 205.773339,81.5533362 204.68,80.98 C203.586661,80.4066638 202.553338,79.686671 201.58,78.82 C200.606662,77.953329 199.74667,76.9600056 199,75.84 L199,98.72 L193.04,98.72 L193.04,41.28 Z M199,62.16 C199.053334,64.2666772 199.379997,66.2466574 199.98,68.1 C200.580003,69.9533426 201.399995,71.5666598 202.44,72.94 C203.480005,74.3133402 204.713326,75.399996 206.14,76.2 C207.566674,77.000004 209.146658,77.4 210.88,77.4 C212.640009,77.4 214.239993,76.9866708 215.68,76.16 C217.120007,75.3333292 218.346662,74.2000072 219.36,72.76 C220.373338,71.3199928 221.153331,69.633343 221.7,67.7 C222.246669,65.766657 222.52,63.7066776 222.52,61.52 C222.52,59.3333224 222.246669,57.2800096 221.7,55.36 C221.153331,53.4399904 220.373338,51.7666738 219.36,50.34 C218.346662,48.9133262 217.120007,47.7866708 215.68,46.96 C214.239993,46.1333292 212.640009,45.72 210.88,45.72 C209.119991,45.72 207.513341,46.1333292 206.06,46.96 C204.606659,47.7866708 203.353339,48.9133262 202.3,50.34 C201.246661,51.7666738 200.433336,53.4399904 199.86,55.36 C199.286664,57.2800096 199,59.3333224 199,61.52 L199,62.16 Z M237.28,61.68 C237.28,58.7733188 237.686663,56.0400128 238.5,53.48 C239.313337,50.9199872 240.499992,48.6800096 242.06,46.76 C243.620008,44.8399904 245.546655,43.3266722 247.84,42.22 C250.133345,41.1133278 252.759985,40.56 255.72,40.56 C258.680015,40.56 261.319988,41.1133278 263.64,42.22 C265.960012,43.3266722 267.906659,44.8399904 269.48,46.76 C271.053341,48.6800096 272.253329,50.9199872 273.08,53.48 C273.906671,56.0400128 274.32,58.7733188 274.32,61.68 C274.32,64.5866812 273.906671,67.3199872 273.08,69.88 C272.253329,72.4400128 271.053341,74.6666572 269.48,76.56 C267.906659,78.4533428 265.960012,79.9533278 263.64,81.06 C261.319988,82.1666722 258.680015,82.72 255.72,82.72 C252.759985,82.72 250.133345,82.1666722 247.84,81.06 C245.546655,79.9533278 243.620008,78.4533428 242.06,76.56 C240.499992,74.6666572 239.313337,72.4400128 238.5,69.88 C237.686663,67.3199872 237.28,64.5866812 237.28,61.68 Z M243.24,61.68 C243.24,63.8400108 243.526664,65.8799904 244.1,67.8 C244.673336,69.7200096 245.499995,71.3866596 246.58,72.8 C247.660005,74.2133404 248.973326,75.3333292 250.52,76.16 C252.066674,76.9866708 253.79999,77.4 255.72,77.4 C257.64001,77.4 259.373326,76.9866708 260.92,76.16 C262.466674,75.3333292 263.779995,74.2133404 264.86,72.8 C265.940005,71.3866596 266.77333,69.7200096 267.36,67.8 C267.94667,65.8799904 268.24,63.8400108 268.24,61.68 C268.24,59.5199892 267.94667,57.4800096 267.36,55.56 C266.77333,53.6399904 265.940005,51.9600072 264.86,50.52 C263.779995,49.0799928 262.466674,47.9466708 260.92,47.12 C259.373326,46.2933292 257.64001,45.88 255.72,45.88 C253.79999,45.88 252.066674,46.2933292 250.52,47.12 C248.973326,47.9466708 247.660005,49.0799928 246.58,50.52 C245.499995,51.9600072 244.673336,53.6399904 244.1,55.56 C243.526664,57.4800096 243.24,59.5199892 243.24,61.68 Z M282.92,41.28 L288.88,41.28 L288.64,47.52 C289.89334,45.253322 291.379991,43.5266726 293.1,42.34 C294.820009,41.1533274 296.826655,40.56 299.12,40.56 C299.546669,40.56 300.019997,40.5999996 300.54,40.68 C301.060003,40.7600004 301.519998,40.8799992 301.92,41.04 L301.92,47.2 C300.639994,46.7466644 299.653337,46.52 298.96,46.52 C297.359992,46.52 295.940006,46.819997 294.7,47.42 C293.459994,48.020003 292.406671,48.819995 291.54,49.82 C290.673329,50.820005 290.013336,51.9799934 289.56,53.3 C289.106664,54.6200066 288.88,55.9999928 288.88,57.44 L288.88,82 L282.92,82 L282.92,41.28 Z M317.56,29.16 L317.56,41.28 L323.88,41.28 L323.88,46.44 L317.56,46.44 L317.56,72.84 C317.56,73.7466712 317.673332,74.499997 317.9,75.1 C318.126668,75.700003 318.439998,76.1799982 318.84,76.54 C319.240002,76.9000018 319.713331,77.1599992 320.26,77.32 C320.806669,77.4800008 321.41333,77.56 322.08,77.56 C322.480002,77.56 322.899998,77.5400002 323.34,77.5 C323.780002,77.4599998 324.29333,77.373334 324.88,77.24 L324.88,82.16 C324.13333,82.3733344 323.313338,82.5333328 322.42,82.64 C321.526662,82.7466672 320.626671,82.8 319.72,82.8 C318.626661,82.8 317.586672,82.6600014 316.6,82.38 C315.613328,82.0999986 314.740004,81.6466698 313.98,81.02 C313.219996,80.3933302 312.620002,79.5866716 312.18,78.6 C311.739998,77.6133284 311.52,76.4000072 311.52,74.96 L311.52,46.44 L305.2,46.44 L305.2,41.28 L311.52,41.28 L311.52,29.16 L317.56,29.16 Z M339.64,62.76 C339.666667,64.6533428 339.999997,66.4933244 340.64,68.28 C341.280003,70.0666756 342.153328,71.6466598 343.26,73.02 C344.366672,74.3933402 345.666659,75.4933292 347.16,76.32 C348.653341,77.1466708 350.266658,77.56 352,77.56 C357.866696,77.56 361.746657,74.8400272 363.64,69.4 L369.12,69.4 C368.666664,71.533344 367.893339,73.433325 366.8,75.1 C365.706661,76.766675 364.393341,78.166661 362.86,79.3 C361.326659,80.433339 359.633343,81.299997 357.78,81.9 C355.926657,82.500003 354.00001,82.8 352,82.8 C349.146652,82.8 346.566678,82.2133392 344.26,81.04 C341.953322,79.8666608 339.993341,78.2866766 338.38,76.3 C336.766659,74.3133234 335.520004,72.0066798 334.64,69.38 C333.759996,66.7533202 333.32,63.973348 333.32,61.04 C333.32,58.3199864 333.753329,55.7200124 334.62,53.24 C335.486671,50.7599876 336.726659,48.5800094 338.34,46.7 C339.953341,44.8199906 341.906655,43.3266722 344.2,42.22 C346.493345,41.1133278 349.066652,40.56 351.92,40.56 C354.66668,40.56 357.153322,41.059995 359.38,42.06 C361.606678,43.060005 363.499992,44.4399912 365.06,46.2 C366.620008,47.9600088 367.819996,50.0533212 368.66,52.48 C369.500004,54.9066788 369.92,57.5333192 369.92,60.36 L369.92,62.76 L339.64,62.76 Z M363.72,58.08 C363.666666,56.3733248 363.353336,54.7733408 362.78,53.28 C362.206664,51.7866592 361.393339,50.4933388 360.34,49.4 C359.286661,48.3066612 358.020007,47.4466698 356.54,46.82 C355.059993,46.1933302 353.386676,45.88 351.52,45.88 C349.839992,45.88 348.286674,46.21333 346.86,46.88 C345.433326,47.54667 344.186672,48.446661 343.12,49.58 C342.053328,50.713339 341.213336,52.013326 340.6,53.48 C339.986664,54.946674 339.666667,56.479992 339.64,58.08 L363.72,58.08 Z M378.56,41.28 L384.52,41.28 L384.28,47.52 C385.53334,45.253322 387.019991,43.5266726 388.74,42.34 C390.460009,41.1533274 392.466655,40.56 394.76,40.56 C395.186669,40.56 395.659997,40.5999996 396.18,40.68 C396.700003,40.7600004 397.159998,40.8799992 397.56,41.04 L397.56,47.2 C396.279994,46.7466644 395.293337,46.52 394.6,46.52 C392.999992,46.52 391.580006,46.819997 390.34,47.42 C389.099994,48.020003 388.046671,48.819995 387.18,49.82 C386.313329,50.820005 385.653336,51.9799934 385.2,53.3 C384.746664,54.6200066 384.52,55.9999928 384.52,57.44 L384.52,82 L378.56,82 L378.56,41.28 Z" id="Reporter" fill="#ffffff"></path>
            <rect id="Rectangle" fill="#ffffff" x="0.296837293" y="0" width="145.575839" height="10"></rect>
            <rect id="Rectangle" fill="#ffffff" x="0.296837293" y="97" width="145.575839" height="10"></rect>
            <rect id="Rectangle" fill="#ffffff" x="0.296837293" y="48" width="83.4770544" height="10"></rect>
        </g>
    </g>
</svg>